<svg width="40" height="40" viewBox="0 0 40 40" fill="none" xmlns="http://www.w3.org/2000/svg">
<path d="M22.0233 20L32.2772 7.77734C32.449 7.57422 32.3045 7.26562 32.0389 7.26562H28.9217C28.7381 7.26562 28.5623 7.34766 28.4412 7.48828L19.9842 17.5703L11.5272 7.48828C11.41 7.34766 11.2342 7.26562 11.0467 7.26562H7.92951C7.66389 7.26562 7.51936 7.57422 7.69123 7.77734L17.9451 20L7.69123 32.2227C7.65273 32.2679 7.62803 32.3233 7.62006 32.3822C7.61209 32.4411 7.62119 32.501 7.64628 32.5549C7.67137 32.6088 7.71139 32.6544 7.7616 32.6862C7.8118 32.718 7.87008 32.7347 7.92951 32.7344H11.0467C11.2303 32.7344 11.4061 32.6523 11.5272 32.5117L19.9842 22.4297L28.4412 32.5117C28.5584 32.6523 28.7342 32.7344 28.9217 32.7344H32.0389C32.3045 32.7344 32.449 32.4258 32.2772 32.2227L22.0233 20Z" fill="white"/>
</svg>
